<svg width="20" height="19" viewBox="0 0 20 19" fill="none" xmlns="http://www.w3.org/2000/svg">
<path d="M13.6585 1.54725C14.7231 1.55031 15.7431 1.95889 16.4958 2.68376C17.2486 3.40863 17.6729 4.39088 17.6761 5.41599V13.1527C17.6729 14.1778 17.2486 15.16 16.4958 15.8849C15.7431 16.6098 14.7231 17.0183 13.6585 17.0214H5.6243C4.55976 17.0183 3.53973 16.6098 2.78698 15.8849C2.03423 15.16 1.60994 14.1778 1.60676 13.1527V5.41599C1.60994 4.39088 2.03423 3.40863 2.78698 2.68376C3.53973 1.95889 4.55976 1.55031 5.6243 1.54725H13.6585ZM13.6585 0H5.6243C2.53087 0 0 2.43713 0 5.41599V13.1527C0 16.1315 2.53087 18.5686 5.6243 18.5686H13.6585C16.752 18.5686 19.2828 16.1315 19.2828 13.1527V5.41599C19.2828 2.43713 16.752 0 13.6585 0Z" fill="#274C5B"/>
<path d="M14.8633 5.4163C14.6249 5.4163 14.3919 5.34823 14.1937 5.22071C13.9956 5.09319 13.8411 4.91194 13.7499 4.69988C13.6587 4.48781 13.6348 4.25447 13.6813 4.02935C13.7278 3.80422 13.8426 3.59743 14.0111 3.43513C14.1797 3.27283 14.3944 3.16229 14.6282 3.11751C14.862 3.07274 15.1043 3.09572 15.3245 3.18356C15.5447 3.27139 15.7329 3.42014 15.8654 3.61099C15.9978 3.80184 16.0685 4.02622 16.0685 4.25576C16.0688 4.40825 16.0379 4.55931 15.9774 4.70026C15.917 4.84121 15.8282 4.96928 15.7163 5.07711C15.6043 5.18494 15.4713 5.27042 15.3249 5.32862C15.1785 5.38683 15.0217 5.41662 14.8633 5.4163ZM9.64102 6.18971C10.2767 6.18971 10.8981 6.37123 11.4266 6.7113C11.9551 7.05137 12.3671 7.53473 12.6103 8.10026C12.8536 8.66578 12.9172 9.28806 12.7932 9.88841C12.6692 10.4888 12.3631 11.0402 11.9136 11.4731C11.4641 11.9059 10.8915 12.2007 10.268 12.3201C9.64458 12.4395 8.99837 12.3782 8.4111 12.144C7.82382 11.9097 7.32187 11.513 6.96872 11.0041C6.61557 10.4951 6.42707 9.89674 6.42707 9.28463C6.42798 8.46407 6.76689 7.67738 7.36942 7.09716C7.97196 6.51694 8.78891 6.19059 9.64102 6.18971ZM9.64102 4.64246C8.68757 4.64246 7.75554 4.91472 6.96278 5.42481C6.17002 5.9349 5.55214 6.6599 5.18727 7.50815C4.8224 8.35639 4.72694 9.28978 4.91294 10.1903C5.09895 11.0908 5.55808 11.9179 6.23227 12.5671C6.90645 13.2163 7.76542 13.6585 8.70055 13.8376C9.63567 14.0167 10.605 13.9248 11.4858 13.5734C12.3667 13.2221 13.1196 12.6271 13.6493 11.8637C14.179 11.1003 14.4617 10.2028 14.4617 9.28463C14.4617 8.05345 13.9538 6.8727 13.0498 6.00212C12.1457 5.13155 10.9196 4.64246 9.64102 4.64246Z" fill="#274C5B"/>
</svg>
